<?xml version="1.0" encoding="UTF-8"?>
<svg width="18px" height="20px" viewBox="0 0 18 20" version="1.1" xmlns="http://www.w3.org/2000/svg" xmlns:xlink="http://www.w3.org/1999/xlink">
    <!-- Generator: Sketch 55.1 (78136) - https://sketchapp.com -->
    <title>icons/star</title>
    <desc>Created with Sketch.</desc>
    <g id="Symbols" stroke="none" stroke-width="1" fill="none" fill-rule="evenodd">
        <g id="component-/-calendar-" transform="translate(-334.000000, -18.000000)" fill="#4E586E">
            <g id="Group-17">
                <g id="Group-15-Copy-5" transform="translate(312.000000, 0.000000)">
                    <g id="Group-16" transform="translate(21.000000, 18.000000)">
                        <g id="icons/calendar">
                            <path d="M16.6666667,7.49999999 L16.6666667,4.99999998 C16.6666667,4.53976269 16.2935707,4.16666664 15.8333333,4.16666664 L14.1666667,4.16666664 L14.1666667,4.99999998 C14.1666667,5.46023727 13.7935706,5.8333333 13.3333333,5.8333333 C12.8730961,5.8333333 12.5,5.46023727 12.5,4.99999998 L12.5,4.16666664 L7.49999999,4.16666664 L7.49999999,4.99999998 C7.49999999,5.46023727 7.12690395,5.8333333 6.66666665,5.8333333 C6.20642936,5.8333333 5.83333332,5.46023727 5.83333332,4.99999998 L5.83333332,4.16666664 L4.16666664,4.16666664 C3.70642935,4.16666664 3.33333331,4.53976269 3.33333331,4.99999998 L3.33333331,7.49999999 L16.6666667,7.49999999 Z M16.6666667,9.16666666 L3.33333331,9.16666666 L3.33333331,16.6666666 C3.33333331,17.126904 3.70642935,17.5 4.16666664,17.5 L15.8333333,17.5 C16.2935707,17.5 16.6666667,17.126904 16.6666667,16.6666666 L16.6666667,9.16666666 Z M7.49999999,2.49999997 L12.5,2.49999997 L12.5,1.66666663 C12.5,1.20642934 12.8730961,0.833333295 13.3333333,0.833333295 C13.7935706,0.833333295 14.1666667,1.20642934 14.1666667,1.66666663 L14.1666667,2.49999997 L15.8333334,2.49999997 C17.2140452,2.49999997 18.3333334,3.6192881 18.3333334,4.99999997 L18.3333334,16.6666667 C18.3333334,18.0473786 17.2140452,19.1666667 15.8333334,19.1666667 L4.16666663,19.1666667 C2.78595476,19.1666667 1.66666663,18.0473786 1.66666663,16.6666667 L1.66666663,4.99999997 C1.66666663,3.6192881 2.78595476,2.49999997 4.16666663,2.49999997 L5.83333332,2.49999997 L5.83333332,1.66666663 C5.83333332,1.20642934 6.20642936,0.833333295 6.66666665,0.833333295 C7.12690395,0.833333295 7.49999999,1.20642934 7.49999999,1.66666663 L7.49999999,2.49999997 Z" id="Combined-Shape"></path>
                        </g>
                    </g>
                </g>
            </g>
        </g>
    </g>
</svg>
