<?xml version="1.0" encoding="UTF-8"?>
<svg width="18px" height="20px" viewBox="0 0 18 20" version="1.1" xmlns="http://www.w3.org/2000/svg" xmlns:xlink="http://www.w3.org/1999/xlink">
    <!-- Generator: Sketch 55.1 (78136) - https://sketchapp.com -->
    <title>Group 6</title>
    <desc>Created with Sketch.</desc>
    <g id="Symbols" stroke="none" stroke-width="1" fill="none" fill-rule="evenodd">
        <g id="menu-/-VIP" transform="translate(-254.000000, -60.000000)">
            <g id="Group-2" transform="translate(-1.000000, 27.000000)">
                <g id="Group-5" transform="translate(256.000000, 34.000000)">
                    <g id="Group-6">
                        <g id="bell" stroke="#A7ACB7" stroke-linecap="round" stroke-linejoin="round" stroke-width="1.8">
                            <path d="M8,0 C5.05448133,0 2.66666667,2.38781467 2.66666667,5.33333333 C2.66666667,11.5555556 0,13.3333333 0,13.3333333 L16,13.3333333 C16,13.3333333 13.3333333,11.5555556 13.3333333,5.33333333 C13.3333333,2.38781467 10.9455187,0 8,0 Z" id="Path"></path>
                        </g>
                        <path d="M8.82199047,16.3431594 L8.75927778,16.4372942 C8.60224432,16.7080028 8.31295789,16.8746278 8,16.8746278 C7.72616185,16.8746278 7.47044716,16.7470555 7.30559705,16.5338089 L7.24072222,16.4372942 C6.99131337,16.0073405 6.44058123,15.86098 6.01062755,16.1103889 C5.58067387,16.3597977 5.43431337,16.9105299 5.68372222,17.3404836 C6.16277367,18.166316 7.04528037,18.6746278 8,18.6746278 C8.95471963,18.6746278 9.83722633,18.166316 10.3162778,17.3404836 C10.5656866,16.9105299 10.4193261,16.3597977 9.98937245,16.1103889 C9.59249213,15.8801653 9.09269999,15.9871654 8.82199047,16.3431594 Z" id="Path" fill="#A7ACB7"></path>
                    </g>
                </g>
            </g>
        </g>
    </g>
</svg>