<?xml version="1.0" encoding="UTF-8"?>
<svg width="21px" height="23px" viewBox="0 0 21 23" version="1.1" xmlns="http://www.w3.org/2000/svg" xmlns:xlink="http://www.w3.org/1999/xlink">
    <!-- Generator: Sketch 55.1 (78136) - https://sketchapp.com -->
    <title>001-award</title>
    <desc>Created with Sketch.</desc>
    <g id="Symbols" stroke="none" stroke-width="1" fill="none" fill-rule="evenodd">
        <g id="menu-/-VIP" transform="translate(-27.000000, -58.000000)" fill="#A7ACB7">
            <g id="Group-2" transform="translate(-1.000000, 27.000000)">
                <g id="Group-4" transform="translate(0.000000, 31.000000)">
                    <g id="Group">
                        <g id="001-award" transform="translate(28.000000, 0.000000)">
                            <path d="M17.8500247,18.9733634 C18.693355,18.7241182 19.421846,18.1906182 19.9090037,17.4655172 C20.5219071,16.4175557 20.2447533,15.1385942 19.9765813,13.9032095 C19.8144271,13.2685942 19.7173912,12.6193826 19.687024,11.9655172 C19.7172843,11.3110701 19.8142667,10.6612769 19.9765813,10.0261326 C20.2430424,8.78990186 20.5219071,7.51178647 19.9090037,6.46551724 C19.2742873,5.38074801 17.9963004,4.97924801 16.7602287,4.59170955 C16.1449194,4.42401243 15.5490174,4.19317109 14.9822529,3.90294032 C14.4679358,3.57294032 13.9904016,3.1900557 13.5575626,2.76063263 C12.6405599,1.91870955 11.6008055,0.965517241 10.2774817,0.965517241 C8.95415789,0.965517241 7.91440347,1.91870955 6.99697309,2.76020955 C6.56429453,3.1897384 6.08686719,3.57278166 5.57271055,3.90294032 C5.00599948,4.19258936 4.41025783,4.42284897 3.79516246,4.59001724 C2.55909077,4.9775557 1.28110384,5.3790557 0.646387438,6.46382493 C0.0334840681,7.51178647 0.31063786,8.79074801 0.578809816,10.0261326 C0.740964031,10.6613297 0.837839546,11.3110701 0.867939389,11.9655172 C0.837679156,12.6199644 0.740696715,13.2697576 0.57838211,13.9049019 C0.311920979,15.1411326 0.0330563617,16.419248 0.645959732,17.4655172 C1.13375896,18.1908826 1.86305195,18.724224 2.70707721,18.9729403 C3.87280714,19.6367856 4.74710459,20.1346695 5.32996956,20.4665922 C5.87586949,20.7774644 6.69471938,21.2437728 7.78651923,21.8655172 C8.45865995,22.512772 9.34155303,22.9026903 10.2774817,22.9655172 C11.2134104,22.9026903 12.0963035,22.512772 12.7684442,21.8655172 L17.8500247,18.9733634 Z M10.2776956,21.9655172 C9.30542007,21.9655172 8.48761432,21.2155172 7.62140524,20.4205172 C7.15015678,19.9544235 6.62961058,19.5399964 6.06871074,19.1842672 C5.45846055,18.8680172 4.81606425,18.616611 4.15235995,18.4342672 C3.03992526,18.0846839 1.98894175,17.7546839 1.52763702,16.9655172 C1.0873772,16.2117672 1.31466239,15.1613506 1.55583722,14.0488506 C1.72940523,13.366611 1.83126266,12.668486 1.85972592,11.9655172 C1.8314205,11.2625485 1.7297209,10.5644235 1.55625811,9.88218391 C1.31508328,8.77010057 1.0877981,7.71968391 1.52805792,6.96551724 C1.99104625,6.17635057 3.04034616,5.84635057 4.15278085,5.49676724 C4.81637992,5.31437141 5.45856578,5.06296516 6.06871074,4.74676724 C6.62945274,4.39103807 7.14989372,3.97655891 7.62098434,3.51051724 C8.48761432,2.71551724 9.30542007,1.96551724 10.2776956,1.96551724 C11.2499711,1.96551724 12.0677768,2.71551724 12.9339859,3.51051724 C13.4052343,3.97661099 13.9257805,4.39103807 14.4866804,4.74676724 C15.0969306,5.06301724 15.7393269,5.31442349 16.4030312,5.49676724 C17.5154659,5.84635057 18.5664494,6.17635057 19.0277541,6.96551724 C19.4680139,7.71926724 19.2407287,8.76968391 18.9995539,9.88218391 C18.8259859,10.5644235 18.7241285,11.2625485 18.6956652,11.9655172 C18.7239706,12.668486 18.8256702,13.366611 18.999133,14.0488506 C19.2403078,15.1609339 19.467593,16.2113506 19.0273332,16.9655172 C18.5643449,17.7546839 17.515045,18.0846839 16.4026103,18.4342672 C15.7390112,18.6166631 15.0968253,18.8680693 14.4866804,19.1842672 C13.9259384,19.5399964 13.4054974,19.9544756 12.9344068,20.4205172 C12.0677768,21.2155172 11.2499711,21.9655172 10.2776956,21.9655172 Z" id="Shape"></path>
                            <path d="M11.4734467,7.26238078 L12.209559,9.50630787 L14.5826264,9.5063079 C14.9682648,9.5064578 15.3307717,9.68997115 15.5581503,10.0004498 C15.9518535,10.5379727 15.8324796,11.2914354 15.2919015,11.6824857 L13.3728506,13.0680638 L14.1043972,15.3067653 C14.2733233,15.8050448 14.0938605,16.3544259 13.6693712,16.6541995 C13.246221,16.9666743 12.6676386,16.9666743 12.2475457,16.6564318 L10.3256742,15.2690971 L8.40316074,16.6559501 C8.09044249,16.8818192 7.68820479,16.9451719 7.32086742,16.8264865 C6.68617057,16.621452 6.33817479,15.9424287 6.54502047,15.3099803 L7.27776657,13.0680546 L5.35843922,11.6822767 C5.04554248,11.4558759 4.86029955,11.0939234 4.86052629,10.70859 C4.86082946,10.0437711 5.4024159,9.50600793 6.06899763,9.50630787 L8.44386621,9.50630787 L9.17829673,7.261605 C9.29836399,6.89846158 9.58461562,6.61393604 9.94914151,6.49486082 L10.0762652,6.46074662 C10.6711367,6.33501232 11.2785094,6.67280536 11.4734467,7.26238078 Z M13.045037,16.1799157 L10.3731971,14.2492436 C10.3545072,14.2357564 10.3312072,14.2312606 10.3094666,14.23574 L10.2787964,14.2491884 L7.609,16.176 L7.63057096,16.1813148 C7.75782587,16.1970866 7.88781069,16.1646796 7.99346525,16.0883679 L10.3258137,14.4058702 L12.6603138,16.0910928 C12.7727361,16.1741109 12.9118084,16.2040933 13.045037,16.1799157 L10.3731971,14.2492436 L13.045037,16.1799157 Z M15.0850859,10.7798598 L12.4089295,12.7101563 C12.3908379,12.7232234 12.3798856,12.7426586 12.3776221,12.7633968 L12.3809372,12.7948484 L13.4054498,15.9244381 C13.470896,15.806536 13.4862089,15.6634914 13.4402405,15.5278558 L12.5487296,12.7997018 L14.8818792,11.1151397 C14.9971027,11.0317878 15.0664927,10.909457 15.0850859,10.7798598 Z M8.24257807,12.7105969 L5.567,10.778 L5.56052632,10.7089556 C5.56043194,10.8693446 5.63769575,11.020313 5.76849341,11.1149537 L8.10191137,12.7997098 L7.21036257,15.5275116 C7.16578053,15.663825 7.18316889,15.8054881 7.24728498,15.9223917 L8.27055008,12.7948505 C8.27727989,12.7742645 8.27460804,12.7523552 8.26407676,12.7342532 L8.24257807,12.7105969 Z M10.3257695,8.76129975 L9.7497521,10.5232648 C9.65680377,10.8075882 9.41013508,11.0098837 9.11979024,11.0513281 L9.00907854,11.0591759 L7.15146559,11.0591759 L8.65249967,12.1431779 C8.89563312,12.318889 9.01323751,12.6157441 8.96279143,12.9046156 L8.93591374,13.0123159 L8.36152201,14.7701382 L9.86909743,13.6816086 C10.11141,13.5067486 10.429509,13.4873197 10.6887167,13.6233607 L10.782896,13.6816638 L12.2901886,14.7699892 L11.7156892,13.0126672 C11.622201,12.7275835 11.7024527,12.4182045 11.9138016,12.2140355 L11.9991194,12.1426568 L13.5000219,11.0590189 L11.6424094,11.0587495 C11.342865,11.0587495 11.0732412,10.8880455 10.9435862,10.6254727 L10.9017415,10.5228556 L10.3257695,8.76129975 Z M10.103,7.187 L10.0787536,7.1983276 C9.96788602,7.25934819 9.88309699,7.35980641 9.84325189,7.48031358 L8.95135255,10.2063079 L6.06884016,10.2063078 C5.92598281,10.2062436 5.79707827,10.2644448 5.70482331,10.3581022 L9.00907854,10.3591759 C9.03223029,10.3591759 9.05340687,10.3494545 9.06800816,10.3336255 L9.08440361,10.305753 L10.103,7.187 Z M10.5484755,7.18581459 L11.5670851,10.3053287 C11.5739606,10.3263605 11.5897117,10.3430925 11.6097533,10.3519102 L11.6424602,10.3587495 L14.944,10.359 L14.9296379,10.3424027 C14.8364465,10.2558614 14.7126483,10.2063585 14.5824903,10.2063079 L11.7024886,10.2063079 L10.8085774,7.48135124 C10.7641057,7.34685029 10.6676985,7.24340401 10.5484755,7.18581459 Z" id="Shape"></path>
                        </g>
                    </g>
                </g>
            </g>
        </g>
    </g>
</svg>