<?xml version="1.0" encoding="UTF-8"?>
<svg width="17px" height="14px" viewBox="0 0 17 14" version="1.1" xmlns="http://www.w3.org/2000/svg" xmlns:xlink="http://www.w3.org/1999/xlink">
    <!-- Generator: Sketch 55.1 (78136) - https://sketchapp.com -->
    <title>Container</title>
    <desc>Created with Sketch.</desc>
    <defs>
        <path d="M1,0 L16,0 C16.5522847,-1.01453063e-16 17,0.44771525 17,1 C17,1.55228475 16.5522847,2 16,2 L1,2 C0.44771525,2 6.76353751e-17,1.55228475 0,1 C-6.76353751e-17,0.44771525 0.44771525,1.01453063e-16 1,0 Z M1,12 L16,12 C16.5522847,12 17,12.4477153 17,13 C17,13.5522847 16.5522847,14 16,14 L1,14 C0.44771525,14 6.76353751e-17,13.5522847 0,13 C-6.76353751e-17,12.4477153 0.44771525,12 1,12 Z" id="path-1"></path>
    </defs>
    <g id="Symbols" stroke="none" stroke-width="1" fill="none" fill-rule="evenodd">
        <g id="menu-/-Analyses" transform="translate(-329.000000, -63.000000)">
            <g id="Group-2" transform="translate(-1.000000, 27.000000)">
                <g id="Tab-One-Copy-4" transform="translate(330.000000, 36.000000)">
                    <g id="Container">
                        <g id="Glyph-Copy" transform="translate(8.500000, 7.000000) scale(1, -1) translate(-8.500000, -7.000000) ">
                            <mask id="mask-2" fill="white">
                                <use xlink:href="#path-1"></use>
                            </mask>
                            <use id="Filters" fill="#A7ACB7" xlink:href="#path-1"></use>
                        </g>
                        <rect id="Path" fill="#A7ACB7" x="5" y="6" width="12" height="2" rx="1"></rect>
                    </g>
                </g>
            </g>
        </g>
    </g>
</svg>