<?xml version="1.0" encoding="UTF-8"?>
<svg width="22px" height="21px" viewBox="0 0 22 21" version="1.1" xmlns="http://www.w3.org/2000/svg" xmlns:xlink="http://www.w3.org/1999/xlink">
    <!-- Generator: Sketch 55.1 (78136) - https://sketchapp.com -->
    <title>Group 3</title>
    <desc>Created with Sketch.</desc>
    <g id="Symbols" stroke="none" stroke-width="1" fill="none" fill-rule="evenodd">
        <g id="menu-/-VIP" transform="translate(-102.000000, -58.000000)" fill="#A7ACB7">
            <g id="Group-2" transform="translate(-1.000000, 27.000000)">
                <g id="Tab-One-Copy-3" transform="translate(103.000000, 31.000000)">
                    <g id="Container">
                        <g id="Group-3">
                            <g id="Glyph-Copy">
                                <path d="M13.311346,4 L16,4 C19.3137085,4 22,6.6862915 22,10 L22,15 C22,18.3137085 19.3137085,21 16,21 L6,21 C2.6862915,21 4.05812251e-16,18.3137085 0,15 L0,10 C-4.05812251e-16,6.6862915 2.6862915,4 6,4 L9.27631021,4 L6.82021227,1.69028491 C6.43040832,1.32371319 6.41157488,0.710549558 6.77814661,0.320745611 C6.78401341,0.314506986 6.78996267,0.308346421 6.79599282,0.30226554 C7.1858653,-0.0908868712 7.81796359,-0.101916307 8.22131474,0.277395205 L11.0938598,2.97873728 L14.4753752,1.07754394 C14.954539,0.808143115 15.5611397,0.97063173 15.8414794,1.44347887 C16.1136373,1.90252581 15.9621337,2.49528444 15.5030868,2.76744232 C15.49672,2.77121703 15.4903101,2.77491845 15.4838583,2.77854586 L13.311346,4 Z M6.77152412,5.53009207 C6.74863062,5.53009207 6.72573736,5.53024182 6.70284581,5.5305413 C3.80359898,5.56847128 1.48404337,7.94952354 1.52197335,10.8487704 L1.56776281,14.3487704 C1.60534239,17.2212344 3.94460376,19.5300921 6.81731358,19.5300921 L15.2020263,19.5300921 C15.2249198,19.5300921 15.247813,19.5299423 15.2707046,19.5296428 C18.1699514,19.4917129 20.489507,17.1106606 20.451577,14.2114138 L20.4057876,10.7114138 C20.368208,7.83894976 18.0289466,5.53009207 15.1562368,5.53009207 L6.77152412,5.53009207 Z" id="Rectangle-3"></path>
                            </g>
                            <path d="M13.0588235,15 L6.94117647,15 C6.42137906,15 6,14.5522847 6,14 C6,13.4477153 6.42137906,13 6.94117647,13 L13.0588235,13 C13.5786209,13 14,13.4477153 14,14 C14,14.5522847 13.5786209,15 13.0588235,15 Z" id="Path"></path>
                            <path d="M15.2727273,12 L8.72727273,12 C8.32561109,12 8,11.5522847 8,11 C8,10.4477153 8.32561109,10 8.72727273,10 L15.2727273,10 C15.6743889,10 16,10.4477153 16,11 C16,11.5522847 15.6743889,12 15.2727273,12 Z" id="Path"></path>
                        </g>
                    </g>
                </g>
            </g>
        </g>
    </g>
</svg>