<?xml version="1.0" encoding="UTF-8"?>
<svg width="403px" height="129px" viewBox="0 0 403 129" version="1.1" xmlns="http://www.w3.org/2000/svg" xmlns:xlink="http://www.w3.org/1999/xlink">
    <!-- Generator: Sketch 55.1 (78136) - https://sketchapp.com -->
    <title>Background 2</title>
    <desc>Created with Sketch.</desc>
    <defs>
        <path d="M165.46237,15 C171.147805,8.2661086 179.583609,4 189,4 C198.696269,4 207.352794,8.52347566 213.03725,15.606936 C216.537362,18.9481895 221.279068,21 226.5,21 C227.347032,21 228.181451,20.9459941 229,20.8412379 L229,21 L376,21 L376,105 L1,105 L1,21 L150,21 L150,20.975435 C150.331278,20.9917477 150.664675,21 151,21 C156.594788,21 161.653019,18.7027245 165.282866,15 L165.46237,15 Z" id="path-1"></path>
        <filter x="-5.9%" y="-19.8%" width="111.7%" height="143.6%" filterUnits="objectBoundingBox" id="filter-2">
            <feOffset dx="0" dy="2" in="SourceAlpha" result="shadowOffsetOuter1"></feOffset>
            <feGaussianBlur stdDeviation="7" in="shadowOffsetOuter1" result="shadowBlurOuter1"></feGaussianBlur>
            <feComposite in="shadowBlurOuter1" in2="SourceAlpha" operator="out" result="shadowBlurOuter1"></feComposite>
            <feColorMatrix values="0 0 0 0 0   0 0 0 0 0   0 0 0 0 0  0 0 0 0.12 0" type="matrix" in="shadowBlurOuter1"></feColorMatrix>
        </filter>
    </defs>
    <g id="Symbols" stroke="none" stroke-width="1" fill="none" fill-rule="evenodd">
        <g id="menu-/-VIP" transform="translate(14.000000, -19.000000)">
            <g id="Group-2" transform="translate(-1.000000, 27.000000)">
                <g id="Background-2">
                    <use fill="black" fill-opacity="1" filter="url(#filter-2)" xlink:href="#path-1"></use>
                    <use fill-opacity="0.920000017" fill="#FFFFFF" fill-rule="evenodd" xlink:href="#path-1"></use>
                </g>
            </g>
        </g>
    </g>
</svg>